<?xml version="1.0" encoding="UTF-8"?>
<!DOCTYPE svg PUBLIC "-//W3C//DTD SVG 1.1//EN" "http://www.w3.org/Graphics/SVG/1.1/DTD/svg11.dtd">
<svg xmlns="http://www.w3.org/2000/svg" version="1.1" width="205px" height="195px" style="shape-rendering:geometricPrecision; text-rendering:geometricPrecision; image-rendering:optimizeQuality; fill-rule:evenodd; clip-rule:evenodd" xmlns:xlink="http://www.w3.org/1999/xlink">
<g><path style="opacity:1" fill="#c6ecc7" d="M -0.5,-0.5 C 67.8333,-0.5 136.167,-0.5 204.5,-0.5C 204.5,64.5 204.5,129.5 204.5,194.5C 136.167,194.5 67.8333,194.5 -0.5,194.5C -0.5,129.5 -0.5,64.5 -0.5,-0.5 Z"/></g>
<g><path style="opacity:1" fill="#274d28" d="M 16.5,21.5 C 45.5019,21.3334 74.5019,21.5 103.5,22C 105.848,22.3459 107.681,23.5125 109,25.5C 110.147,37.4078 110.647,49.4078 110.5,61.5C 110.647,73.5922 110.147,85.5922 109,97.5C 107.421,99.0412 105.587,100.208 103.5,101C 89.8374,101.5 76.1707,101.667 62.5,101.5C 62.5,102.833 62.5,104.167 62.5,105.5C 72.1667,105.5 81.8333,105.5 91.5,105.5C 91.67,106.822 91.3366,107.989 90.5,109C 70.5,109.667 50.5,109.667 30.5,109C 29.6634,107.989 29.33,106.822 29.5,105.5C 39.1667,105.5 48.8333,105.5 58.5,105.5C 58.5,104.167 58.5,102.833 58.5,101.5C 44.8293,101.667 31.1626,101.5 17.5,101C 14.4173,100.214 12.2506,98.3807 11,95.5C 10.3333,73.1667 10.3333,50.8333 11,28.5C 11.9383,25.4025 13.7716,23.0691 16.5,21.5 Z"/></g>
<g><path style="opacity:1" fill="#c3e9c4" d="M 106.5,79.5 C 76.1667,79.5 45.8333,79.5 15.5,79.5C 15.5,62.5 15.5,45.5 15.5,28.5C 15.9528,27.5416 16.6195,26.7083 17.5,26C 46.1667,25.3333 74.8333,25.3333 103.5,26C 104.333,26.8333 105.167,27.6667 106,28.5C 106.5,45.4967 106.667,62.4967 106.5,79.5 Z"/></g>
<g><path style="opacity:1" fill="#204621" d="M 66.5,40.5 C 67.4731,38.0521 67.8064,35.3854 67.5,32.5C 68.8333,32.5 70.1667,32.5 71.5,32.5C 70.1667,40.5 73.5,43.8333 81.5,42.5C 81.5,43.8333 81.5,45.1667 81.5,46.5C 78.6146,46.1936 75.9479,46.5269 73.5,47.5C 73.5,48.8333 73.5,50.1667 73.5,51.5C 76.5,51.5 79.5,51.5 82.5,51.5C 82.5,52.8333 82.5,54.1667 82.5,55.5C 79.5,55.5 76.5,55.5 73.5,55.5C 73.5,56.8333 73.5,58.1667 73.5,59.5C 75.9479,60.4731 78.6146,60.8064 81.5,60.5C 81.5,61.8333 81.5,63.1667 81.5,64.5C 73.5,63.1667 70.1667,66.5 71.5,74.5C 70.1667,74.5 68.8333,74.5 67.5,74.5C 67.8064,71.6146 67.4731,68.9479 66.5,66.5C 65.1667,66.5 63.8333,66.5 62.5,66.5C 62.5,69.5 62.5,72.5 62.5,75.5C 61.1667,75.5 59.8333,75.5 58.5,75.5C 58.5,72.5 58.5,69.5 58.5,66.5C 56.8333,66.5 55.1667,66.5 53.5,66.5C 53.5,69.5 53.5,72.5 53.5,75.5C 52.1667,75.5 50.8333,75.5 49.5,75.5C 51.332,67.0018 47.9987,63.3351 39.5,64.5C 39.5,63.1667 39.5,61.8333 39.5,60.5C 42.3854,60.8064 45.0521,60.4731 47.5,59.5C 47.5,58.1667 47.5,56.8333 47.5,55.5C 44.5,55.5 41.5,55.5 38.5,55.5C 38.5,54.1667 38.5,52.8333 38.5,51.5C 41.5,51.5 44.5,51.5 47.5,51.5C 47.5,50.1667 47.5,48.8333 47.5,47.5C 45.0521,46.5269 42.3854,46.1936 39.5,46.5C 39.5,45.1667 39.5,43.8333 39.5,42.5C 47.5,43.8333 50.8333,40.5 49.5,32.5C 50.8333,32.5 52.1667,32.5 53.5,32.5C 53.1936,35.3854 53.5269,38.0521 54.5,40.5C 55.8333,40.5 57.1667,40.5 58.5,40.5C 58.5,37.5 58.5,34.5 58.5,31.5C 59.8333,31.5 61.1667,31.5 62.5,31.5C 62.5,34.5 62.5,37.5 62.5,40.5C 63.8333,40.5 65.1667,40.5 66.5,40.5 Z"/></g>
<g><path style="opacity:1" fill="#6f9570" d="M 49.5,32.5 C 50.9187,31.5489 52.5853,31.2155 54.5,31.5C 54.5,34.5 54.5,37.5 54.5,40.5C 53.5269,38.0521 53.1936,35.3854 53.5,32.5C 52.1667,32.5 50.8333,32.5 49.5,32.5 Z"/></g>
<g><path style="opacity:1" fill="#6f9570" d="M 71.5,32.5 C 70.1667,32.5 68.8333,32.5 67.5,32.5C 67.8064,35.3854 67.4731,38.0521 66.5,40.5C 66.5,37.5 66.5,34.5 66.5,31.5C 68.4147,31.2155 70.0813,31.5489 71.5,32.5 Z"/></g>
<g><path style="opacity:1" fill="#6f9570" d="M 39.5,42.5 C 39.5,43.8333 39.5,45.1667 39.5,46.5C 42.3854,46.1936 45.0521,46.5269 47.5,47.5C 44.5,47.5 41.5,47.5 38.5,47.5C 38.2155,45.5853 38.5489,43.9187 39.5,42.5 Z"/></g>
<g><path style="opacity:1" fill="#6d936e" d="M 81.5,42.5 C 82.4511,43.9187 82.7845,45.5853 82.5,47.5C 79.5,47.5 76.5,47.5 73.5,47.5C 75.9479,46.5269 78.6146,46.1936 81.5,46.5C 81.5,45.1667 81.5,43.8333 81.5,42.5 Z"/></g>
<g><path style="opacity:1" fill="#244a25" d="M 130.5,48.5 C 151.259,48.0232 171.925,48.5232 192.5,50C 194.049,51.214 195.215,52.714 196,54.5C 196.667,80.1667 196.667,105.833 196,131.5C 195.654,133.848 194.487,135.681 192.5,137C 171.925,138.477 151.259,138.977 130.5,138.5C 130.5,135.5 130.5,132.5 130.5,129.5C 124.011,129.844 122.011,127.01 124.5,121C 126.473,120.505 128.473,120.338 130.5,120.5C 130.5,118.167 130.5,115.833 130.5,113.5C 126.76,114.32 124.427,112.987 123.5,109.5C 123.826,105.187 126.159,103.52 130.5,104.5C 130.5,102.5 130.5,100.5 130.5,98.5C 124.011,98.8437 122.011,96.0104 124.5,90C 126.345,88.872 128.345,88.372 130.5,88.5C 130.5,86.5 130.5,84.5 130.5,82.5C 123.514,82.669 121.847,79.8357 125.5,74C 127.134,73.5065 128.801,73.3398 130.5,73.5C 130.5,71.1667 130.5,68.8333 130.5,66.5C 123.324,67.0154 121.658,64.1821 125.5,58C 127.134,57.5065 128.801,57.3398 130.5,57.5C 130.5,54.5 130.5,51.5 130.5,48.5 Z"/></g>
<g><path style="opacity:1" fill="#426843" d="M 186.5,51.5 C 169.167,51.5 151.833,51.5 134.5,51.5C 134.5,53.5 134.5,55.5 134.5,57.5C 133.532,55.3926 133.198,53.0593 133.5,50.5C 151.341,50.1699 169.008,50.5033 186.5,51.5 Z"/></g>
<g><path style="opacity:1" fill="#c5ebc6" d="M 186.5,51.5 C 189.561,51.4443 191.728,52.7776 193,55.5C 193.981,81.5871 193.648,107.587 192,133.5C 191.25,134.126 190.416,134.626 189.5,135C 170.836,135.5 152.17,135.667 133.5,135.5C 133.5,133.5 133.5,131.5 133.5,129.5C 136.167,129.5 138.833,129.5 141.5,129.5C 141.81,126.287 141.477,123.287 140.5,120.5C 138.735,119.539 136.735,119.205 134.5,119.5C 134.5,117.833 134.5,116.167 134.5,114.5C 136.735,114.795 138.735,114.461 140.5,113.5C 141.477,110.713 141.81,107.713 141.5,104.5C 139.167,104.5 136.833,104.5 134.5,104.5C 134.5,102.5 134.5,100.5 134.5,98.5C 137.059,98.8016 139.393,98.4682 141.5,97.5C 141.5,94.8333 141.5,92.1667 141.5,89.5C 139.393,88.5318 137.059,88.1984 134.5,88.5C 134.5,86.5 134.5,84.5 134.5,82.5C 136.833,82.5 139.167,82.5 141.5,82.5C 141.81,79.2869 141.477,76.2869 140.5,73.5C 138.735,72.5386 136.735,72.2053 134.5,72.5C 134.5,70.8333 134.5,69.1667 134.5,67.5C 136.735,67.7947 138.735,67.4614 140.5,66.5C 141.477,63.7131 141.81,60.7131 141.5,57.5C 139.167,57.5 136.833,57.5 134.5,57.5C 134.5,55.5 134.5,53.5 134.5,51.5C 151.833,51.5 169.167,51.5 186.5,51.5 Z"/></g>
<g><path style="opacity:1" fill="#284d28" d="M 150.5,57.5 C 161.552,57.1891 172.552,57.5225 183.5,58.5C 184.192,59.0253 184.692,59.6919 185,60.5C 185.667,67.5 185.667,74.5 185,81.5C 184.167,82.3333 183.333,83.1667 182.5,84C 171.833,84.6667 161.167,84.6667 150.5,84C 150,83.5 149.5,83 149,82.5C 148.333,74.8333 148.333,67.1667 149,59.5C 149.717,58.9558 150.217,58.2891 150.5,57.5 Z"/></g>
<g><path style="opacity:1" fill="#6f9570" d="M 47.5,59.5 C 45.0521,60.4731 42.3854,60.8064 39.5,60.5C 39.5,61.8333 39.5,63.1667 39.5,64.5C 38.5489,63.0813 38.2155,61.4147 38.5,59.5C 41.5,59.5 44.5,59.5 47.5,59.5 Z"/></g>
<g><path style="opacity:1" fill="#6b916c" d="M 73.5,59.5 C 76.5,59.5 79.5,59.5 82.5,59.5C 82.7845,61.4147 82.4511,63.0813 81.5,64.5C 81.5,63.1667 81.5,61.8333 81.5,60.5C 78.6146,60.8064 75.9479,60.4731 73.5,59.5 Z"/></g>
<g><path style="opacity:1" fill="#8cb28d" d="M 51.5,44.5 C 57.5,44.5 63.5,44.5 69.5,44.5C 69.5,50.5 69.5,56.5 69.5,62.5C 63.5,62.5 57.5,62.5 51.5,62.5C 51.5,56.5 51.5,50.5 51.5,44.5 Z"/></g>
<g><path style="opacity:1" fill="#c4eac5" d="M 52.5,45.5 C 57.8333,45.5 63.1667,45.5 68.5,45.5C 68.5,50.8333 68.5,56.1667 68.5,61.5C 63.1667,61.5 57.8333,61.5 52.5,61.5C 52.5,56.1667 52.5,50.8333 52.5,45.5 Z"/></g>
<g><path style="opacity:1" fill="#1d431d" d="M 58.5,51.5 C 59.8333,51.5 61.1667,51.5 62.5,51.5C 62.5,52.8333 62.5,54.1667 62.5,55.5C 61.1667,55.5 59.8333,55.5 58.5,55.5C 58.5,54.1667 58.5,52.8333 58.5,51.5 Z"/></g>
<g><path style="opacity:1" fill="#bee4bf" d="M 126.5,60.5 C 130.5,60.5 134.5,60.5 138.5,60.5C 138.5,61.5 138.5,62.5 138.5,63.5C 134.5,63.5 130.5,63.5 126.5,63.5C 126.5,62.5 126.5,61.5 126.5,60.5 Z"/></g>
<g><path style="opacity:1" fill="#bbe1bc" d="M 151.5,60.5 C 161.506,60.3335 171.506,60.5002 181.5,61C 182.833,67.6667 182.833,74.3333 181.5,81C 171.506,81.4998 161.506,81.6665 151.5,81.5C 151.5,74.5 151.5,67.5 151.5,60.5 Z"/></g>
<g><path style="opacity:1" fill="#1f441f" d="M 154.5,65.5 C 163.004,65.0328 171.337,65.5328 179.5,67C 171.337,68.4672 163.004,68.9672 154.5,68.5C 154.5,67.5 154.5,66.5 154.5,65.5 Z"/></g>
<g><path style="opacity:1" fill="#6c926d" d="M 66.5,66.5 C 67.4731,68.9479 67.8064,71.6146 67.5,74.5C 68.8333,74.5 70.1667,74.5 71.5,74.5C 70.0813,75.4511 68.4147,75.7845 66.5,75.5C 66.5,72.5 66.5,69.5 66.5,66.5 Z"/></g>
<g><path style="opacity:1" fill="#7ca27d" d="M 140.5,66.5 C 138.735,67.4614 136.735,67.7947 134.5,67.5C 134.5,69.1667 134.5,70.8333 134.5,72.5C 136.735,72.2053 138.735,72.5386 140.5,73.5C 138.167,73.5 135.833,73.5 133.5,73.5C 133.5,71.1667 133.5,68.8333 133.5,66.5C 135.833,66.5 138.167,66.5 140.5,66.5 Z"/></g>
<g><path style="opacity:1" fill="#274c27" d="M 154.5,73.5 C 162.86,73.1688 171.193,73.5021 179.5,74.5C 179.291,75.086 178.957,75.586 178.5,76C 170.507,76.4997 162.507,76.6664 154.5,76.5C 154.5,75.5 154.5,74.5 154.5,73.5 Z"/></g>
<g><path style="opacity:1" fill="#c2e8c3" d="M 126.5,76.5 C 130.5,76.5 134.5,76.5 138.5,76.5C 138.5,77.5 138.5,78.5 138.5,79.5C 134.5,79.5 130.5,79.5 126.5,79.5C 126.5,78.5 126.5,77.5 126.5,76.5 Z"/></g>
<g><path style="opacity:1" fill="#93b994" d="M 15.5,28.5 C 15.5,45.5 15.5,62.5 15.5,79.5C 45.8333,79.5 76.1667,79.5 106.5,79.5C 76.0045,80.4981 45.3379,80.8315 14.5,80.5C 14.17,62.992 14.5033,45.6586 15.5,28.5 Z"/></g>
<g><path style="opacity:1" fill="#c5ebc6" d="M 14.5,84.5 C 45.1667,84.5 75.8333,84.5 106.5,84.5C 106.665,87.8499 106.498,91.1832 106,94.5C 105.5,95 105,95.5 104.5,96C 75.1667,96.6667 45.8333,96.6667 16.5,96C 16,95.5 15.5,95 15,94.5C 14.5017,91.1832 14.335,87.8499 14.5,84.5 Z"/></g>
<g><path style="opacity:1" fill="#204621" d="M 58.5,86.5 C 64.4877,86.664 65.821,89.164 62.5,94C 56.4034,94.1475 55.0701,91.6475 58.5,86.5 Z"/></g>
<g><path style="opacity:1" fill="#608661" d="M 134.5,82.5 C 134.5,84.5 134.5,86.5 134.5,88.5C 137.059,88.1984 139.393,88.5318 141.5,89.5C 138.833,89.5 136.167,89.5 133.5,89.5C 133.198,86.9407 133.532,84.6074 134.5,82.5 Z"/></g>
<g><path style="opacity:1" fill="#a8cea9" d="M 127.5,91.5 C 131.167,91.5 134.833,91.5 138.5,91.5C 138.5,92.8333 138.5,94.1667 138.5,95.5C 134.5,95.5 130.5,95.5 126.5,95.5C 126.433,94.0413 126.766,92.7079 127.5,91.5 Z"/></g>
<g><path style="opacity:1" fill="#5f8560" d="M 141.5,97.5 C 139.393,98.4682 137.059,98.8016 134.5,98.5C 134.5,100.5 134.5,102.5 134.5,104.5C 133.532,102.393 133.198,100.059 133.5,97.5C 136.167,97.5 138.833,97.5 141.5,97.5 Z"/></g>
<g><path style="opacity:1" fill="#c3e9c4" d="M 126.5,107.5 C 130.5,107.5 134.5,107.5 138.5,107.5C 138.5,108.5 138.5,109.5 138.5,110.5C 134.5,110.5 130.5,110.5 126.5,110.5C 126.5,109.5 126.5,108.5 126.5,107.5 Z"/></g>
<g><path style="opacity:1" fill="#7ca27d" d="M 140.5,113.5 C 138.735,114.461 136.735,114.795 134.5,114.5C 134.5,116.167 134.5,117.833 134.5,119.5C 136.735,119.205 138.735,119.539 140.5,120.5C 138.167,120.5 135.833,120.5 133.5,120.5C 133.5,118.167 133.5,115.833 133.5,113.5C 135.833,113.5 138.167,113.5 140.5,113.5 Z"/></g>
<g><path style="opacity:1" fill="#bde3be" d="M 126.5,123.5 C 130.5,123.5 134.5,123.5 138.5,123.5C 138.5,124.5 138.5,125.5 138.5,126.5C 134.5,126.5 130.5,126.5 126.5,126.5C 126.5,125.5 126.5,124.5 126.5,123.5 Z"/></g>
<g><path style="opacity:1" fill="#1f4520" d="M 37.5,124.5 C 45.84,124.334 54.1733,124.5 62.5,125C 66.7939,126.145 70.4606,128.312 73.5,131.5C 76.5394,128.312 80.2061,126.145 84.5,125C 92.8333,124.333 101.167,124.333 109.5,125C 110.658,142.426 110.825,159.926 110,177.5C 85.9058,178.661 61.7391,178.827 37.5,178C 36.5212,171.256 36.1878,164.422 36.5,157.5C 37.5,157.5 38.5,157.5 39.5,157.5C 39.5,159.833 39.5,162.167 39.5,164.5C 48.6483,164.497 57.6483,165.664 66.5,168C 67.9663,168.635 69.2997,169.469 70.5,170.5C 71.6659,158.514 71.8326,146.514 71,134.5C 69.0616,131.894 66.5616,130.061 63.5,129C 55.5069,128.5 47.5069,128.334 39.5,128.5C 39.831,136.528 39.4977,144.528 38.5,152.5C 37.914,152.291 37.414,151.957 37,151.5C 36.1965,142.422 36.3631,133.422 37.5,124.5 Z"/></g>
<g><path style="opacity:1" fill="#c2e8c3" d="M 83.5,128.5 C 91.5,128.5 99.5,128.5 107.5,128.5C 107.5,140.5 107.5,152.5 107.5,164.5C 100.803,164.548 94.1361,165.048 87.5,166C 83.4906,166.748 79.8239,168.248 76.5,170.5C 75.3341,158.514 75.1674,146.514 76,134.5C 78.1141,131.879 80.6141,129.879 83.5,128.5 Z"/></g>
<g><path style="opacity:1" fill="#1e441f" d="M 46.5,134.5 C 51.5,134.5 56.5,134.5 61.5,134.5C 61.5,135.5 61.5,136.5 61.5,137.5C 56.5,137.5 51.5,137.5 46.5,137.5C 46.5,136.5 46.5,135.5 46.5,134.5 Z"/></g>
<g><path style="opacity:1" fill="#1e441f" d="M 85.5,134.5 C 90.5,134.5 95.5,134.5 100.5,134.5C 100.5,135.5 100.5,136.5 100.5,137.5C 95.5,137.5 90.5,137.5 85.5,137.5C 85.5,136.5 85.5,135.5 85.5,134.5 Z"/></g>
<g><path style="opacity:1" fill="#264b26" d="M 46.5,144.5 C 51.1785,144.334 55.8452,144.501 60.5,145C 61.3366,146.011 61.67,147.178 61.5,148.5C 56.4889,148.666 51.4889,148.499 46.5,148C 45.3157,146.855 45.3157,145.688 46.5,144.5 Z"/></g>
<g><path style="opacity:1" fill="#264c27" d="M 86.5,144.5 C 91.1785,144.334 95.8452,144.501 100.5,145C 101.833,146 101.833,147 100.5,148C 95.5111,148.499 90.5111,148.666 85.5,148.5C 85.4326,147.041 85.7659,145.708 86.5,144.5 Z"/></g>
<g><path style="opacity:1" fill="#1e441f" d="M 46.5,155.5 C 51.5,155.5 56.5,155.5 61.5,155.5C 61.5,156.5 61.5,157.5 61.5,158.5C 56.5,158.5 51.5,158.5 46.5,158.5C 46.5,157.5 46.5,156.5 46.5,155.5 Z"/></g>
<g><path style="opacity:1" fill="#1e441f" d="M 85.5,155.5 C 90.5,155.5 95.5,155.5 100.5,155.5C 100.5,156.5 100.5,157.5 100.5,158.5C 95.5,158.5 90.5,158.5 85.5,158.5C 85.5,157.5 85.5,156.5 85.5,155.5 Z"/></g>
<g><path style="opacity:1" fill="#83a984" d="M 46.5,168.5 C 44.5,168.5 42.5,168.5 40.5,168.5C 40.5,170.5 40.5,172.5 40.5,174.5C 39.5318,172.393 39.1984,170.059 39.5,167.5C 42.0593,167.198 44.3926,167.532 46.5,168.5 Z"/></g>
<g><path style="opacity:1" fill="#c5ebc6" d="M 46.5,168.5 C 54.7438,168.114 62.4104,169.947 69.5,174C 59.8391,174.5 50.1724,174.666 40.5,174.5C 40.5,172.5 40.5,170.5 40.5,168.5C 42.5,168.5 44.5,168.5 46.5,168.5 Z"/></g>
<g><path style="opacity:1" fill="#c5ebc6" d="M 100.5,168.5 C 102.5,168.5 104.5,168.5 106.5,168.5C 106.5,170.5 106.5,172.5 106.5,174.5C 96.8276,174.666 87.1609,174.5 77.5,174C 84.5896,169.947 92.2562,168.114 100.5,168.5 Z"/></g>
<g><path style="opacity:1" fill="#83a984" d="M 100.5,168.5 C 102.607,167.532 104.941,167.198 107.5,167.5C 107.802,170.059 107.468,172.393 106.5,174.5C 106.5,172.5 106.5,170.5 106.5,168.5C 104.5,168.5 102.5,168.5 100.5,168.5 Z"/></g>
</svg>
